<svg id="Layer_1" data-name="Layer 1" xmlns="http://www.w3.org/2000/svg" viewBox="0 0 395.72 79.96"><title>Boulder FL master Trimmed</title><path d="M96,21.63h2.17V35.78c0,5.31,2.5,7.32,6.69,7.32s6.75-2,6.72-7.32V21.63h2.17V36.26c0,4.7-2.52,8.7-8.89,8.7S96,41,96,36.26Z" style="fill:#231f20"/><path d="M117.74,28h2v2.85h.06a5.6,5.6,0,0,1,5.28-3.33c4.64,0,6.05,2.43,6.05,6.37V44.48h-2V34.18c0-2.85-.92-5-4.19-5s-5.12,2.43-5.18,5.66v9.63h-2Z" style="fill:#231f20"/><path d="M135,21.63h2v3.24h-2ZM135,28h2V44.48h-2Z" style="fill:#231f20"/><path d="M139,28h2.24l5.19,14.5h.06L151.63,28h2.08l-6.18,16.51h-2.14Z" style="fill:#231f20"/><path d="M156.88,36.77c0,2.94,1.57,6.5,5.44,6.5,2.94,0,4.54-1.73,5.18-4.23h2c-.87,3.75-3,5.92-7.2,5.92-5.25,0-7.46-4-7.46-8.73,0-4.36,2.21-8.74,7.46-8.74s7.42,4.64,7.26,9.28Zm10.69-1.7c-.1-3-2-5.88-5.25-5.88s-5.12,2.88-5.44,5.88Z" style="fill:#231f20"/><path d="M172.3,28h1.86v3.87h.06a6.11,6.11,0,0,1,6.24-4.09v2a5.69,5.69,0,0,0-6.14,5.92v8.8h-2Z" style="fill:#231f20"/><path d="M192.27,32.8c-.1-2.49-2-3.61-4.32-3.61-1.79,0-3.9.7-3.9,2.84,0,1.8,2,2.44,3.42,2.79l2.69.61c2.3.35,4.7,1.69,4.7,4.57,0,3.58-3.55,5-6.62,5-3.84,0-6.47-1.79-6.78-5.82h2c.16,2.72,2.18,4.13,4.86,4.13,1.89,0,4.52-.84,4.52-3.14,0-1.92-1.8-2.56-3.62-3l-2.59-.57C184,35.84,182,35,182,32.13c0-3.36,3.3-4.64,6.21-4.64,3.29,0,5.92,1.73,6,5.31Z" style="fill:#231f20"/><path d="M197.81,21.63h2v3.24h-2Zm0,6.34h2V44.48h-2Z" style="fill:#231f20"/><path d="M206.89,28h3.36v1.7h-3.36V40.8c0,1.31.2,2.08,1.64,2.18a14.17,14.17,0,0,0,1.72-.1v1.73c-.6,0-1.18.06-1.79.06-2.69,0-3.61-.89-3.58-3.71V29.67H202V28h2.88V23h2Z" style="fill:#231f20"/><path d="M211.31,28h2.14l5.44,14.08L224,28h2l-7.17,19c-1.15,2.78-1.82,3.58-4.35,3.58a5.12,5.12,0,0,1-1.54-.16V48.74a7.5,7.5,0,0,0,1.38.16c1.79,0,2.21-1.06,2.88-2.6l.7-1.88Z" style="fill:#231f20"/><path d="M251.66,36.23c0,4.73-2.75,8.73-7.81,8.73s-7.8-4-7.8-8.73,2.75-8.74,7.8-8.74S251.66,31.49,251.66,36.23Zm-13.6,0c0,3.52,1.92,7,5.79,7s5.8-3.52,5.8-7-1.92-7-5.8-7S238.06,32.71,238.06,36.23Z" style="fill:#231f20"/><path d="M261,29.67h-3.27V44.48h-2V29.67h-2.82V28h2.82v-1.5c0-2.85.77-4.84,4-4.84a11.35,11.35,0,0,1,1.69.13v1.73a7.85,7.85,0,0,0-1.47-.16c-2.24,0-2.17,1.41-2.21,3.2V28H261Z" style="fill:#231f20"/><path d="M288.94,28.55a6.93,6.93,0,0,0-7-5.54c-6,0-8.6,5.06-8.6,10.05s2.56,10,8.6,10c4.23,0,6.92-3.26,7.33-7.32h2.18c-.61,5.6-4.16,9.18-9.51,9.18-7.19,0-10.78-5.66-10.78-11.9s3.59-11.91,10.78-11.91c4.32,0,8.61,2.6,9.19,7.4Z" style="fill:#231f20"/><path d="M309.17,36.23c0,4.73-2.76,8.73-7.81,8.73s-7.81-4-7.81-8.73,2.75-8.74,7.81-8.74S309.17,31.49,309.17,36.23Zm-13.6,0c0,3.52,1.92,7,5.79,7s5.79-3.52,5.79-7-1.92-7-5.79-7S295.57,32.71,295.57,36.23Z" style="fill:#231f20"/><path d="M312.21,21.63h2V44.48h-2Z" style="fill:#231f20"/><path d="M332.88,36.23c0,4.73-2.75,8.73-7.81,8.73s-7.81-4-7.81-8.73,2.75-8.74,7.81-8.74S332.88,31.49,332.88,36.23Zm-13.6,0c0,3.52,1.92,7,5.79,7s5.79-3.52,5.79-7-1.92-7-5.79-7S319.28,32.71,319.28,36.23Z" style="fill:#231f20"/><path d="M335.89,28h1.85v3.87h.07a6.1,6.1,0,0,1,6.24-4.09v2a5.69,5.69,0,0,0-6.15,5.92v8.8h-2Z" style="fill:#231f20"/><path d="M345.77,33c.2-3.88,2.92-5.54,6.69-5.54,2.91,0,6.08.9,6.08,5.31v8.77a1.08,1.08,0,0,0,1.19,1.22,2,2,0,0,0,.64-.13v1.69a5.37,5.37,0,0,1-1.32.13c-2,0-2.36-1.15-2.36-2.88h-.07c-1.41,2.15-2.85,3.36-6,3.36s-5.54-1.5-5.54-4.83c0-4.64,4.51-4.8,8.86-5.31,1.67-.19,2.6-.42,2.6-2.24,0-2.72-2-3.39-4.32-3.39s-4.36,1.15-4.42,3.84Zm10.76,2.43h-.07c-.25.48-1.15.64-1.69.73-3.43.61-7.68.58-7.68,3.81a3.44,3.44,0,0,0,3.68,3.27c3.07,0,5.79-2,5.76-5.19Z" style="fill:#231f20"/><path d="M377.1,44.48h-1.85V41.35h-.07A6.54,6.54,0,0,1,369.29,45c-5,0-7.42-4.06-7.42-8.73s2.4-8.74,7.42-8.74A5.88,5.88,0,0,1,375,31.11h.06V21.63h2Zm-7.81-1.21c4.29,0,5.79-3.62,5.79-7s-1.5-7-5.79-7c-3.84,0-5.4,3.61-5.4,7S365.45,43.27,369.29,43.27Z" style="fill:#231f20"/><path d="M395.72,36.23c0,4.73-2.75,8.73-7.8,8.73s-7.81-4-7.81-8.73,2.75-8.74,7.81-8.74S395.72,31.49,395.72,36.23Zm-13.6,0c0,3.52,1.92,7,5.8,7s5.79-3.52,5.79-7-1.92-7-5.79-7S382.12,32.71,382.12,36.23Z" style="fill:#231f20"/><path d="M96.24,56.63h9.66c3.84,0,7.33,1.35,7.33,5.6a5.18,5.18,0,0,1-4,5.12v.07A5.34,5.34,0,0,1,114.09,73c0,2.17-.76,6.49-8.19,6.49H96.24Zm2.17,10h7.49c3.49,0,5.15-1.73,5.15-3.87,0-2.85-1.76-4.29-5.15-4.29H98.41Zm0,11h7.49c3.23,0,6-1.05,6-4.7,0-2.91-2.21-4.41-6-4.41H98.41Z" style="fill:#231f20"/><path d="M132,71.23C132,76,129.23,80,124.17,80s-7.8-4-7.8-8.73,2.75-8.74,7.8-8.74S132,66.49,132,71.23Zm-13.6,0c0,3.52,1.92,7,5.79,7s5.8-3.52,5.8-7-1.92-7-5.8-7S118.38,67.71,118.38,71.23Z" style="fill:#231f20"/><path d="M148.37,79.48h-1.86v-3h-.06a6.16,6.16,0,0,1-5.7,3.45c-4.16,0-5.79-2.43-5.79-6.27V63h2V73.72c.09,3,1.21,4.55,4.41,4.55,3.46,0,5-3.27,5-6.63V63h2Z" style="fill:#231f20"/><path d="M152.21,56.63h2V79.48h-2Z" style="fill:#231f20"/><path d="M172.62,79.48h-1.85V76.35h-.07A6.54,6.54,0,0,1,164.81,80c-5,0-7.42-4.06-7.42-8.73s2.4-8.74,7.42-8.74a5.88,5.88,0,0,1,5.73,3.62h.07V56.63h2Zm-7.81-1.21c4.29,0,5.8-3.62,5.8-7s-1.51-7-5.8-7c-3.84,0-5.4,3.61-5.4,7S161,78.27,164.81,78.27Z" style="fill:#231f20"/><path d="M177.65,71.77c0,2.94,1.56,6.5,5.44,6.5,2.94,0,4.54-1.73,5.18-4.23h2c-.87,3.75-3,5.92-7.2,5.92-5.25,0-7.46-4-7.46-8.73,0-4.36,2.21-8.74,7.46-8.74s7.42,4.64,7.26,9.28Zm10.68-1.7c-.09-3-2-5.88-5.24-5.88s-5.12,2.88-5.44,5.88Z" style="fill:#231f20"/><path d="M193.07,63h1.86v3.87H195a6.1,6.1,0,0,1,6.24-4.09v2a5.69,5.69,0,0,0-6.14,5.92v8.8h-2Z" style="fill:#231f20"/><polygon points="59.6 20.07 59.6 10.92 48.7 0 10.93 0 0 10.92 0 48.62 10.93 59.53 22.93 59.53 22.93 68.71 33.95 79.64 65.82 79.64 76.86 68.72 76.86 39.51 82.49 39.51 82.49 20.07 59.6 20.07" style="fill:#cfb87c"/><polygon points="48.23 1.13 58.46 11.39 58.46 21.2 81.36 21.2 81.36 38.39 75.73 38.39 75.73 68.24 65.35 78.5 34.41 78.5 24.06 68.24 24.06 58.4 11.4 58.4 1.13 48.15 1.13 11.39 11.4 1.13 48.23 1.13" style="fill:#231f20"/><polyline points="12.57 55.57 26.89 55.57 26.89 67.06 35.58 75.67 64.19 75.67 72.9 67.06 72.9 35.55 78.53 35.55 78.53 24.04 61.26 24.04 61.26 64.17 38.4 64.17 38.4 55.57 47.05 55.57 55.63 46.97 55.63 35.55 44.12 35.55 44.12 44.08 38.4 44.08 38.4 24.04 21.18 24.04 21.18 35.55 26.89 35.55 26.89 44.08 15.45 44.08 15.45 15.37 44.12 15.37 44.12 24.04 55.63 24.04 55.63 12.57 47.05 3.96 12.57 3.96 3.96 12.56 3.96 46.97 12.57 55.57" style="fill:#fff"/><polygon points="36.98 54.15 46.47 54.15 54.22 46.39 54.22 36.97 45.54 36.97 45.54 45.5 36.98 45.5 36.98 25.46 22.6 25.46 22.6 34.14 28.31 34.14 28.31 45.5 14.04 45.5 14.04 13.95 45.54 13.95 45.54 22.62 54.22 22.62 54.22 13.15 46.47 5.38 13.16 5.38 5.38 13.15 5.38 46.39 13.16 54.15 28.31 54.15 28.31 66.47 36.16 74.26 63.6 74.26 71.48 66.46 71.48 34.14 77.11 34.14 77.11 25.46 62.67 25.46 62.67 65.58 36.98 65.58 36.98 54.15" style="fill:#cfb87c"/></svg>