<svg id="Layer_1" data-name="Layer 1" xmlns="http://www.w3.org/2000/svg" viewBox="0 0 301.79 147.97"><title>Boulder FL vertical A</title><path d="M150.63,209.86h2.18V224c0,5.31,2.5,7.33,6.69,7.33s6.75-2,6.72-7.33V209.86h2.17v14.62c0,4.71-2.53,8.71-8.89,8.71s-8.87-4-8.87-8.71Z" transform="translate(-148.55 -120.22)" style="fill:#231f20"/><path d="M172.36,216.2h2V219h.06a5.62,5.62,0,0,1,5.28-3.33c4.64,0,6.05,2.44,6.05,6.37v10.63h-2V222.4c0-2.85-.93-5-4.19-5s-5.12,2.43-5.18,5.66v9.64h-2Z" transform="translate(-148.55 -120.22)" style="fill:#231f20"/><path d="M189.61,209.86h2v3.23h-2Zm0,6.34h2v16.51h-2Z" transform="translate(-148.55 -120.22)" style="fill:#231f20"/><path d="M193.64,216.2h2.24l5.18,14.49h.07l5.12-14.49h2.08l-6.18,16.51H200Z" transform="translate(-148.55 -120.22)" style="fill:#231f20"/><path d="M211.5,225c0,2.95,1.56,6.5,5.44,6.5,2.94,0,4.54-1.73,5.18-4.22h2c-.87,3.74-3,5.92-7.2,5.92-5.25,0-7.46-4-7.46-8.74,0-4.35,2.21-8.74,7.46-8.74s7.42,4.64,7.26,9.28Zm10.68-1.69c-.09-3-2-5.89-5.24-5.89s-5.12,2.88-5.44,5.89Z" transform="translate(-148.55 -120.22)" style="fill:#231f20"/><path d="M226.92,216.2h1.86v3.87h.06a6.09,6.09,0,0,1,6.24-4.1v2a5.68,5.68,0,0,0-6.14,5.92v8.8h-2Z" transform="translate(-148.55 -120.22)" style="fill:#231f20"/><path d="M246.89,221c-.1-2.5-2-3.62-4.32-3.62-1.79,0-3.91.71-3.91,2.85,0,1.79,2.05,2.43,3.43,2.78l2.69.61c2.3.35,4.7,1.7,4.7,4.58,0,3.58-3.55,5-6.62,5-3.84,0-6.47-1.8-6.79-5.83h2c.16,2.72,2.17,4.13,4.86,4.13,1.89,0,4.51-.83,4.51-3.14,0-1.92-1.79-2.56-3.61-3l-2.59-.58c-2.63-.7-4.61-1.6-4.61-4.42,0-3.36,3.29-4.64,6.21-4.64,3.29,0,5.92,1.73,6,5.32Z" transform="translate(-148.55 -120.22)" style="fill:#231f20"/><path d="M252.42,209.86h2v3.23h-2Zm0,6.34h2v16.51h-2Z" transform="translate(-148.55 -120.22)" style="fill:#231f20"/><path d="M261.51,216.2h3.36v1.69h-3.36V229c0,1.31.19,2.08,1.63,2.17a16.56,16.56,0,0,0,1.73-.09v1.72c-.61,0-1.18.07-1.79.07-2.69,0-3.62-.9-3.58-3.71v-11.3h-2.88V216.2h2.88v-5h2Z" transform="translate(-148.55 -120.22)" style="fill:#231f20"/><path d="M265.93,216.2h2.14l5.44,14.07,5.09-14.07h2l-7.17,19c-1.15,2.79-1.83,3.59-4.35,3.59a5.12,5.12,0,0,1-1.54-.16V237a6.72,6.72,0,0,0,1.38.16c1.79,0,2.2-1.05,2.88-2.59l.7-1.89Z" transform="translate(-148.55 -120.22)" style="fill:#231f20"/><path d="M306.28,224.45c0,4.74-2.75,8.74-7.81,8.74s-7.81-4-7.81-8.74,2.76-8.74,7.81-8.74S306.28,219.71,306.28,224.45Zm-13.6,0c0,3.52,1.92,7,5.79,7s5.79-3.52,5.79-7-1.92-7-5.79-7S292.68,220.93,292.68,224.45Z" transform="translate(-148.55 -120.22)" style="fill:#231f20"/><path d="M315.66,217.89h-3.27v14.82h-2V217.89h-2.82V216.2h2.82v-1.51c0-2.85.76-4.83,4-4.83a10.16,10.16,0,0,1,1.69.13v1.72a8.79,8.79,0,0,0-1.47-.16c-2.24,0-2.18,1.41-2.21,3.2v1.45h3.27Z" transform="translate(-148.55 -120.22)" style="fill:#231f20"/><path d="M343.56,216.77a6.92,6.92,0,0,0-7-5.53c-6.05,0-8.6,5-8.6,10s2.55,10.05,8.6,10.05c4.23,0,6.91-3.26,7.33-7.33h2.18c-.61,5.6-4.16,9.19-9.51,9.19-7.2,0-10.78-5.67-10.78-11.91s3.58-11.9,10.78-11.9c4.32,0,8.61,2.59,9.19,7.39Z" transform="translate(-148.55 -120.22)" style="fill:#231f20"/><path d="M363.78,224.45c0,4.74-2.75,8.74-7.8,8.74s-7.81-4-7.81-8.74,2.75-8.74,7.81-8.74S363.78,219.71,363.78,224.45Zm-13.6,0c0,3.52,1.92,7,5.8,7s5.79-3.52,5.79-7-1.92-7-5.79-7S350.18,220.93,350.18,224.45Z" transform="translate(-148.55 -120.22)" style="fill:#231f20"/><path d="M366.83,209.86h2v22.85h-2Z" transform="translate(-148.55 -120.22)" style="fill:#231f20"/><path d="M387.5,224.45c0,4.74-2.76,8.74-7.81,8.74s-7.81-4-7.81-8.74,2.75-8.74,7.81-8.74S387.5,219.71,387.5,224.45Zm-13.6,0c0,3.52,1.92,7,5.79,7s5.79-3.52,5.79-7-1.92-7-5.79-7S373.9,220.93,373.9,224.45Z" transform="translate(-148.55 -120.22)" style="fill:#231f20"/><path d="M390.5,216.2h1.86v3.87h.06a6.11,6.11,0,0,1,6.24-4.1v2a5.68,5.68,0,0,0-6.14,5.92v8.8h-2Z" transform="translate(-148.55 -120.22)" style="fill:#231f20"/><path d="M400.39,221.25c.19-3.87,2.91-5.54,6.69-5.54,2.91,0,6.08.9,6.08,5.32v8.76a1.07,1.07,0,0,0,1.18,1.22,1.73,1.73,0,0,0,.64-.13v1.7a5.75,5.75,0,0,1-1.31.13c-2.05,0-2.37-1.16-2.37-2.88h-.06c-1.41,2.14-2.85,3.36-6,3.36s-5.53-1.51-5.53-4.84c0-4.64,4.51-4.8,8.86-5.31,1.67-.19,2.59-.41,2.59-2.24,0-2.72-1.95-3.39-4.32-3.39s-4.35,1.15-4.41,3.84Zm10.75,2.43h-.06c-.26.48-1.15.64-1.7.74-3.42.61-7.67.57-7.67,3.81a3.44,3.44,0,0,0,3.67,3.26c3.08,0,5.8-2,5.76-5.18Z" transform="translate(-148.55 -120.22)" style="fill:#231f20"/><path d="M431.72,232.71h-1.86v-3.14h-.06a6.55,6.55,0,0,1-5.89,3.62c-5,0-7.42-4.07-7.42-8.74s2.4-8.74,7.42-8.74a5.88,5.88,0,0,1,5.73,3.62h.06v-9.47h2Zm-7.81-1.22c4.29,0,5.79-3.62,5.79-7s-1.5-7-5.79-7c-3.84,0-5.41,3.62-5.41,7S420.07,231.49,423.91,231.49Z" transform="translate(-148.55 -120.22)" style="fill:#231f20"/><path d="M450.34,224.45c0,4.74-2.75,8.74-7.8,8.74s-7.81-4-7.81-8.74,2.75-8.74,7.81-8.74S450.34,219.71,450.34,224.45Zm-13.6,0c0,3.52,1.92,7,5.8,7s5.79-3.52,5.79-7-1.92-7-5.79-7S436.74,220.93,436.74,224.45Z" transform="translate(-148.55 -120.22)" style="fill:#231f20"/><path d="M150.86,244.86h9.66c3.84,0,7.33,1.34,7.33,5.6a5.18,5.18,0,0,1-4,5.12v.06a5.36,5.36,0,0,1,4.83,5.57c0,2.18-.77,6.5-8.19,6.5h-9.66Zm2.17,10h7.49c3.49,0,5.15-1.73,5.15-3.88,0-2.85-1.76-4.29-5.15-4.29H153Zm0,11h7.49c3.23,0,6-1.06,6-4.7,0-2.92-2.21-4.42-6-4.42H153Z" transform="translate(-148.55 -120.22)" style="fill:#231f20"/><path d="M186.6,259.45c0,4.74-2.75,8.74-7.81,8.74s-7.8-4-7.8-8.74,2.75-8.74,7.8-8.74S186.6,254.71,186.6,259.45Zm-13.6,0c0,3.52,1.92,7,5.79,7s5.79-3.52,5.79-7-1.92-7-5.79-7S173,255.93,173,259.45Z" transform="translate(-148.55 -120.22)" style="fill:#231f20"/><path d="M203,267.71h-1.85v-3h-.07a6.13,6.13,0,0,1-5.69,3.46c-4.16,0-5.79-2.44-5.79-6.28V251.2h2V262c.1,3,1.22,4.54,4.42,4.54,3.45,0,5-3.26,5-6.62V251.2h2Z" transform="translate(-148.55 -120.22)" style="fill:#231f20"/><path d="M206.82,244.86h2v22.85h-2Z" transform="translate(-148.55 -120.22)" style="fill:#231f20"/><path d="M227.24,267.71h-1.86v-3.14h-.06a6.55,6.55,0,0,1-5.89,3.62c-5,0-7.42-4.07-7.42-8.74s2.4-8.74,7.42-8.74a5.88,5.88,0,0,1,5.73,3.62h.06v-9.47h2Zm-7.81-1.22c4.29,0,5.79-3.62,5.79-7s-1.5-7-5.79-7c-3.84,0-5.41,3.62-5.41,7S215.59,266.49,219.43,266.49Z" transform="translate(-148.55 -120.22)" style="fill:#231f20"/><path d="M232.26,260c0,2.95,1.57,6.5,5.44,6.5,3,0,4.55-1.73,5.19-4.22h2c-.86,3.74-3,5.92-7.2,5.92-5.24,0-7.45-4-7.45-8.74,0-4.35,2.21-8.74,7.45-8.74s7.43,4.64,7.27,9.28ZM243,258.3c-.09-3-2-5.89-5.25-5.89s-5.11,2.88-5.44,5.89Z" transform="translate(-148.55 -120.22)" style="fill:#231f20"/><path d="M247.69,251.2h1.85v3.87h.07a6.09,6.09,0,0,1,6.24-4.1v2a5.68,5.68,0,0,0-6.15,5.92v8.8h-2Z" transform="translate(-148.55 -120.22)" style="fill:#231f20"/><polygon points="59.6 20.07 59.6 10.92 48.7 0 10.93 0 0 10.92 0 48.62 10.93 59.53 22.93 59.53 22.93 68.71 33.95 79.64 65.82 79.64 76.86 68.72 76.86 39.51 82.49 39.51 82.49 20.07 59.6 20.07" style="fill:#cfb87c"/><polygon points="48.23 1.13 58.46 11.39 58.46 21.2 81.36 21.2 81.36 38.39 75.73 38.39 75.73 68.24 65.35 78.5 34.41 78.5 24.06 68.24 24.06 58.4 11.4 58.4 1.13 48.15 1.13 11.39 11.4 1.13 48.23 1.13" style="fill:#231f20"/><polyline points="12.57 55.57 26.89 55.57 26.89 67.06 35.58 75.67 64.19 75.67 72.9 67.06 72.9 35.55 78.53 35.55 78.53 24.04 61.26 24.04 61.26 64.17 38.4 64.17 38.4 55.57 47.05 55.57 55.63 46.97 55.63 35.55 44.12 35.55 44.12 44.08 38.4 44.08 38.4 24.04 21.18 24.04 21.18 35.55 26.89 35.55 26.89 44.08 15.45 44.08 15.45 15.37 44.12 15.37 44.12 24.04 55.63 24.04 55.63 12.57 47.05 3.96 12.57 3.96 3.96 12.56 3.96 46.97 12.57 55.57" style="fill:#fff"/><polygon points="36.98 54.15 46.47 54.15 54.22 46.39 54.22 36.97 45.54 36.97 45.54 45.5 36.98 45.5 36.98 25.46 22.6 25.46 22.6 34.14 28.31 34.14 28.31 45.5 14.04 45.5 14.04 13.95 45.54 13.95 45.54 22.62 54.22 22.62 54.22 13.15 46.47 5.38 13.16 5.38 5.38 13.15 5.38 46.39 13.16 54.15 28.31 54.15 28.31 66.47 36.16 74.26 63.6 74.26 71.48 66.46 71.48 34.14 77.11 34.14 77.11 25.46 62.67 25.46 62.67 65.58 36.98 65.58 36.98 54.15" style="fill:#cfb87c"/></svg>