<svg id="Layer_1" data-name="Layer 1" xmlns="http://www.w3.org/2000/svg" viewBox="0 0 528.57 79.63"><title>Boulder one line</title><path d="M139.55,178.85h2.18V193c0,5.31,2.49,7.32,6.68,7.32s6.76-2,6.72-7.32V178.85h2.18v14.63c0,4.7-2.53,8.7-8.9,8.7s-8.86-4-8.86-8.7Z" transform="translate(-40.28 -158.01)" style="fill:#231f20"/><path d="M161.28,185.19h2V188h.06a5.59,5.59,0,0,1,5.28-3.33c4.64,0,6.05,2.43,6.05,6.37V201.7h-2V191.4c0-2.85-.93-5-4.19-5s-5.12,2.44-5.18,5.67v9.63h-2Z" transform="translate(-40.28 -158.01)" style="fill:#231f20"/><path d="M178.53,178.85h2v3.24h-2Zm0,6.34h2V201.7h-2Z" transform="translate(-40.28 -158.01)" style="fill:#231f20"/><path d="M182.56,185.19h2.24L190,199.68h.07l5.12-14.49h2.08l-6.18,16.51h-2.14Z" transform="translate(-40.28 -158.01)" style="fill:#231f20"/><path d="M200.41,194c0,2.94,1.57,6.49,5.44,6.49,3,0,4.55-1.72,5.19-4.22h2c-.86,3.74-3,5.92-7.2,5.92-5.24,0-7.45-4-7.45-8.74,0-4.35,2.21-8.73,7.45-8.73s7.43,4.64,7.27,9.28Zm10.69-1.7c-.09-3-2-5.89-5.25-5.89s-5.12,2.88-5.44,5.89Z" transform="translate(-40.28 -158.01)" style="fill:#231f20"/><path d="M215.84,185.19h1.85v3.87h.07A6.1,6.1,0,0,1,224,185v2a5.69,5.69,0,0,0-6.15,5.92v8.8h-2Z" transform="translate(-40.28 -158.01)" style="fill:#231f20"/><path d="M235.81,190c-.1-2.5-2-3.62-4.32-3.62-1.8,0-3.91.71-3.91,2.85,0,1.79,2,2.43,3.43,2.79l2.68.6c2.31.36,4.71,1.7,4.71,4.58,0,3.58-3.55,5-6.63,5-3.84,0-6.46-1.79-6.78-5.82h2c.16,2.72,2.17,4.12,4.86,4.12,1.89,0,4.51-.83,4.51-3.13,0-1.92-1.79-2.56-3.61-3l-2.6-.58c-2.62-.7-4.6-1.6-4.6-4.41,0-3.36,3.29-4.64,6.2-4.64,3.3,0,5.92,1.73,6,5.31Z" transform="translate(-40.28 -158.01)" style="fill:#231f20"/><path d="M241.34,178.85h2v3.24h-2Zm0,6.34h2V201.7h-2Z" transform="translate(-40.28 -158.01)" style="fill:#231f20"/><path d="M250.43,185.19h3.36v1.69h-3.36V198c0,1.31.19,2.08,1.63,2.18a16.72,16.72,0,0,0,1.73-.1v1.73c-.61,0-1.18.06-1.79.06-2.69,0-3.62-.89-3.59-3.71v-11.3h-2.88v-1.69h2.88v-5h2Z" transform="translate(-40.28 -158.01)" style="fill:#231f20"/><path d="M254.85,185.19H257l5.44,14.08,5.09-14.08h2l-7.16,19c-1.16,2.78-1.83,3.58-4.36,3.58a5,5,0,0,1-1.53-.16V206a7.49,7.49,0,0,0,1.37.16c1.8,0,2.21-1.06,2.88-2.6l.71-1.88Z" transform="translate(-40.28 -158.01)" style="fill:#231f20"/><path d="M295.2,193.44c0,4.74-2.75,8.74-7.81,8.74s-7.81-4-7.81-8.74,2.76-8.73,7.81-8.73S295.2,188.71,295.2,193.44Zm-13.6,0c0,3.52,1.92,7,5.79,7s5.79-3.52,5.79-7-1.92-7-5.79-7S281.6,189.92,281.6,193.44Z" transform="translate(-40.28 -158.01)" style="fill:#231f20"/><path d="M304.57,186.88h-3.26V201.7h-2V186.88h-2.81v-1.69h2.81v-1.5c0-2.85.77-4.84,4-4.84a11.38,11.38,0,0,1,1.7.13v1.73a7.85,7.85,0,0,0-1.47-.16c-2.24,0-2.18,1.41-2.21,3.2v1.44h3.26Z" transform="translate(-40.28 -158.01)" style="fill:#231f20"/><path d="M332.48,185.76a6.93,6.93,0,0,0-7-5.53c-6.05,0-8.61,5.05-8.61,10.05s2.56,10,8.61,10c4.22,0,6.91-3.26,7.33-7.32H335c-.6,5.6-4.16,9.18-9.5,9.18-7.2,0-10.78-5.66-10.78-11.9s3.58-11.91,10.78-11.91c4.32,0,8.61,2.6,9.18,7.39Z" transform="translate(-40.28 -158.01)" style="fill:#231f20"/><path d="M352.7,193.44c0,4.74-2.75,8.74-7.81,8.74s-7.8-4-7.8-8.74,2.75-8.73,7.8-8.73S352.7,188.71,352.7,193.44Zm-13.6,0c0,3.52,1.92,7,5.79,7s5.8-3.52,5.8-7-1.92-7-5.8-7S339.1,189.92,339.1,193.44Z" transform="translate(-40.28 -158.01)" style="fill:#231f20"/><path d="M355.74,178.85h2V201.7h-2Z" transform="translate(-40.28 -158.01)" style="fill:#231f20"/><path d="M376.41,193.44c0,4.74-2.75,8.74-7.8,8.74s-7.81-4-7.81-8.74,2.75-8.73,7.81-8.73S376.41,188.71,376.41,193.44Zm-13.6,0c0,3.52,1.92,7,5.8,7s5.79-3.52,5.79-7-1.92-7-5.79-7S362.81,189.92,362.81,193.44Z" transform="translate(-40.28 -158.01)" style="fill:#231f20"/><path d="M379.42,185.19h1.86v3.87h.06a6.12,6.12,0,0,1,6.24-4.1v2a5.69,5.69,0,0,0-6.14,5.92v8.8h-2Z" transform="translate(-40.28 -158.01)" style="fill:#231f20"/><path d="M389.31,190.24c.19-3.87,2.91-5.53,6.69-5.53,2.91,0,6.08.89,6.08,5.31v8.77a1.07,1.07,0,0,0,1.18,1.21,2,2,0,0,0,.64-.12v1.69a5.34,5.34,0,0,1-1.31.13c-2,0-2.37-1.15-2.37-2.88h-.06c-1.41,2.14-2.85,3.36-6,3.36s-5.53-1.5-5.53-4.83c0-4.64,4.51-4.8,8.86-5.31,1.66-.2,2.59-.42,2.59-2.24,0-2.72-1.95-3.4-4.32-3.4s-4.35,1.16-4.41,3.84Zm10.75,2.44H400c-.26.48-1.15.64-1.7.73-3.42.61-7.68.58-7.68,3.81a3.44,3.44,0,0,0,3.68,3.26c3.07,0,5.79-1.95,5.76-5.18Z" transform="translate(-40.28 -158.01)" style="fill:#231f20"/><path d="M420.64,201.7h-1.86v-3.14h-.06a6.54,6.54,0,0,1-5.89,3.62c-5,0-7.42-4.06-7.42-8.74s2.4-8.73,7.42-8.73a5.91,5.91,0,0,1,5.73,3.61h.06v-9.47h2Zm-7.81-1.22c4.29,0,5.79-3.61,5.79-7s-1.5-7-5.79-7c-3.84,0-5.41,3.62-5.41,7S409,200.48,412.83,200.48Z" transform="translate(-40.28 -158.01)" style="fill:#231f20"/><path d="M439.26,193.44c0,4.74-2.75,8.74-7.81,8.74s-7.8-4-7.8-8.74,2.75-8.73,7.8-8.73S439.26,188.71,439.26,193.44Zm-13.6,0c0,3.52,1.92,7,5.79,7s5.79-3.52,5.79-7-1.92-7-5.79-7S425.66,189.92,425.66,193.44Z" transform="translate(-40.28 -158.01)" style="fill:#231f20"/><path d="M451.45,178.85H462.2c4.35,0,7.3,1.41,7.3,5.67a5,5,0,0,1-3.11,4.76,5.59,5.59,0,0,1,4.2,5.8c0,4.64-3.94,6.62-8.07,6.62H451.45Zm5,9.25h5.08c1.76,0,3.07-.8,3.07-2.72,0-2.17-1.66-2.62-3.45-2.62h-4.7Zm0,9.7h5.37c2,0,3.71-.64,3.71-3s-1.47-3.27-3.61-3.27h-5.47Z" transform="translate(-40.28 -158.01)" style="fill:#231f20"/><path d="M481.53,184.71c5.22,0,8.58,3.45,8.58,8.73s-3.36,8.71-8.58,8.71-8.54-3.46-8.54-8.71S476.35,184.71,481.53,184.71Zm0,14c3.11,0,4-2.65,4-5.28s-.92-5.31-4-5.31-4,2.66-4,5.31S478.46,198.72,481.53,198.72Z" transform="translate(-40.28 -158.01)" style="fill:#231f20"/><path d="M508.57,201.7h-4.32v-2.3h-.09a5.93,5.93,0,0,1-5.06,2.75c-4.83,0-6.05-2.72-6.05-6.82V185.16h4.55v9.34c0,2.72.8,4.06,2.91,4.06,2.46,0,3.52-1.37,3.52-4.73v-8.67h4.54Z" transform="translate(-40.28 -158.01)" style="fill:#231f20"/><path d="M512.16,178.85h4.54V201.7h-4.54Z" transform="translate(-40.28 -158.01)" style="fill:#231f20"/><path d="M532.09,199.59H532a5.5,5.5,0,0,1-5,2.56c-5,0-7.42-4.29-7.42-8.87s2.46-8.57,7.33-8.57a5.68,5.68,0,0,1,4.89,2.46h.07v-8.32h4.54V201.7h-4.32Zm-4-11.46c-3,0-4,2.56-4,5.28s1.19,5.31,4,5.31c3,0,3.91-2.62,3.91-5.34S531.07,188.13,528.12,188.13Z" transform="translate(-40.28 -158.01)" style="fill:#231f20"/><path d="M543.58,194.53c.13,2.88,1.54,4.19,4.06,4.19a3.75,3.75,0,0,0,3.59-2.14h4c-1.28,3.9-4,5.57-7.75,5.57-5.21,0-8.44-3.59-8.44-8.71,0-5,3.42-8.73,8.44-8.73,5.63,0,8.35,4.73,8,9.82Zm7.39-2.88c-.42-2.3-1.41-3.52-3.62-3.52a3.57,3.57,0,0,0-3.77,3.52Z" transform="translate(-40.28 -158.01)" style="fill:#231f20"/><path d="M558.2,185.16h4.32v3.07h.07a5.85,5.85,0,0,1,5.28-3.52,3.26,3.26,0,0,1,1,.16v4.22a8.82,8.82,0,0,0-1.63-.16c-3.33,0-4.48,2.4-4.48,5.31v7.46H558.2Z" transform="translate(-40.28 -158.01)" style="fill:#231f20"/><polygon points="59.6 20.07 59.6 10.92 48.7 0 10.93 0 0 10.92 0 48.62 10.93 59.53 22.93 59.53 22.93 68.71 33.95 79.64 65.82 79.64 76.86 68.72 76.86 39.51 82.49 39.51 82.49 20.07 59.6 20.07" style="fill:#cfb87c"/><polygon points="48.23 1.13 58.46 11.39 58.46 21.2 81.36 21.2 81.36 38.39 75.73 38.39 75.73 68.24 65.35 78.5 34.41 78.5 24.06 68.24 24.06 58.4 11.4 58.4 1.13 48.15 1.13 11.39 11.4 1.13 48.23 1.13" style="fill:#231f20"/><polyline points="12.57 55.57 26.89 55.57 26.89 67.06 35.58 75.67 64.19 75.67 72.9 67.06 72.9 35.55 78.53 35.55 78.53 24.04 61.26 24.04 61.26 64.17 38.4 64.17 38.4 55.57 47.05 55.57 55.63 46.97 55.63 35.55 44.12 35.55 44.12 44.08 38.4 44.08 38.4 24.04 21.18 24.04 21.18 35.55 26.89 35.55 26.89 44.08 15.45 44.08 15.45 15.37 44.12 15.37 44.12 24.04 55.63 24.04 55.63 12.57 47.05 3.96 12.57 3.96 3.96 12.56 3.96 46.97 12.57 55.57" style="fill:#fff"/><polygon points="36.98 54.15 46.47 54.15 54.22 46.39 54.22 36.97 45.54 36.97 45.54 45.5 36.98 45.5 36.98 25.46 22.6 25.46 22.6 34.14 28.31 34.14 28.31 45.5 14.04 45.5 14.04 13.95 45.54 13.95 45.54 22.62 54.22 22.62 54.22 13.15 46.47 5.38 13.16 5.38 5.38 13.15 5.38 46.39 13.16 54.15 28.31 54.15 28.31 66.47 36.16 74.26 63.6 74.26 71.48 66.46 71.48 34.14 77.11 34.14 77.11 25.46 62.67 25.46 62.67 65.58 36.98 65.58 36.98 54.15" style="fill:#cfb87c"/></svg>