<svg id="Layer_1" data-name="Layer 1" xmlns="http://www.w3.org/2000/svg" viewBox="0 0 395.72 79.96"><title>Boulder FL master</title><path d="M197.42,176.45h2.18v14.14c0,5.31,2.5,7.33,6.69,7.33s6.75-2,6.72-7.33V176.45h2.17v14.62c0,4.7-2.53,8.7-8.89,8.7s-8.87-4-8.87-8.7Z" transform="translate(-101.41 -154.81)" style="fill:#231f20"/><path d="M219.15,182.78h2v2.85h.06a5.62,5.62,0,0,1,5.28-3.33c4.64,0,6.05,2.43,6.05,6.37v10.62h-2V189c0-2.85-.93-5-4.19-5s-5.12,2.43-5.18,5.66v9.63h-2Z" transform="translate(-101.41 -154.81)" style="fill:#231f20"/><path d="M236.4,176.45h2v3.23h-2Zm0,6.33h2v16.51h-2Z" transform="translate(-101.41 -154.81)" style="fill:#231f20"/><path d="M240.43,182.78h2.24l5.18,14.5h.07l5.12-14.5h2.08l-6.18,16.51H246.8Z" transform="translate(-101.41 -154.81)" style="fill:#231f20"/><path d="M258.29,191.58c0,2.95,1.56,6.5,5.44,6.5,2.94,0,4.54-1.73,5.18-4.23h2c-.87,3.75-3,5.92-7.2,5.92-5.25,0-7.46-4-7.46-8.73,0-4.35,2.21-8.74,7.46-8.74s7.42,4.64,7.26,9.28ZM269,189.89c-.09-3-2-5.89-5.24-5.89s-5.12,2.88-5.44,5.89Z" transform="translate(-101.41 -154.81)" style="fill:#231f20"/><path d="M273.71,182.78h1.86v3.87h.06a6.1,6.1,0,0,1,6.24-4.09v2a5.69,5.69,0,0,0-6.14,5.92v8.8h-2Z" transform="translate(-101.41 -154.81)" style="fill:#231f20"/><path d="M293.68,187.61c-.1-2.49-2-3.61-4.32-3.61-1.79,0-3.9.7-3.9,2.85,0,1.79,2,2.43,3.42,2.78l2.69.61c2.3.35,4.7,1.69,4.7,4.57,0,3.59-3.55,5-6.62,5-3.84,0-6.47-1.79-6.79-5.82h2c.16,2.72,2.17,4.13,4.86,4.13,1.89,0,4.51-.83,4.51-3.14,0-1.92-1.79-2.56-3.61-3l-2.59-.57c-2.63-.71-4.61-1.6-4.61-4.42,0-3.36,3.29-4.64,6.21-4.64,3.29,0,5.92,1.73,6,5.31Z" transform="translate(-101.41 -154.81)" style="fill:#231f20"/><path d="M299.21,176.45h2v3.23h-2Zm0,6.33h2v16.51h-2Z" transform="translate(-101.41 -154.81)" style="fill:#231f20"/><path d="M308.3,182.78h3.36v1.7H308.3v11.13c0,1.32.19,2.08,1.63,2.18a14.22,14.22,0,0,0,1.73-.1v1.73c-.61,0-1.18.07-1.79.07-2.69,0-3.62-.9-3.58-3.72V184.48h-2.88v-1.7h2.88v-5h2Z" transform="translate(-101.41 -154.81)" style="fill:#231f20"/><path d="M312.72,182.78h2.14l5.44,14.08,5.09-14.08h2l-7.17,19c-1.15,2.79-1.83,3.58-4.35,3.58a5.59,5.59,0,0,1-1.54-.15v-1.7a7.5,7.5,0,0,0,1.38.16c1.79,0,2.2-1.06,2.88-2.59l.7-1.89Z" transform="translate(-101.41 -154.81)" style="fill:#231f20"/><path d="M353.07,191c0,4.73-2.75,8.73-7.81,8.73s-7.8-4-7.8-8.73,2.75-8.74,7.8-8.74S353.07,186.3,353.07,191Zm-13.6,0c0,3.52,1.92,7,5.79,7s5.79-3.52,5.79-7-1.92-7-5.79-7S339.47,187.52,339.47,191Z" transform="translate(-101.41 -154.81)" style="fill:#231f20"/><path d="M362.45,184.48h-3.27v14.81h-2V184.48h-2.82v-1.7h2.82v-1.5c0-2.85.76-4.83,4-4.83a10.16,10.16,0,0,1,1.69.13v1.72a8.79,8.79,0,0,0-1.47-.16c-2.24,0-2.18,1.41-2.21,3.2v1.44h3.27Z" transform="translate(-101.41 -154.81)" style="fill:#231f20"/><path d="M390.35,183.36a6.93,6.93,0,0,0-7-5.54c-6,0-8.6,5.06-8.6,10.05s2.55,10,8.6,10c4.23,0,6.91-3.27,7.33-7.33h2.18c-.61,5.6-4.16,9.18-9.51,9.18-7.2,0-10.78-5.66-10.78-11.9s3.58-11.9,10.78-11.9c4.32,0,8.61,2.59,9.19,7.39Z" transform="translate(-101.41 -154.81)" style="fill:#231f20"/><path d="M410.57,191c0,4.73-2.75,8.73-7.8,8.73s-7.81-4-7.81-8.73,2.75-8.74,7.81-8.74S410.57,186.3,410.57,191ZM397,191c0,3.52,1.92,7,5.8,7s5.79-3.52,5.79-7-1.92-7-5.79-7S397,187.52,397,191Z" transform="translate(-101.41 -154.81)" style="fill:#231f20"/><path d="M413.62,176.45h2v22.84h-2Z" transform="translate(-101.41 -154.81)" style="fill:#231f20"/><path d="M434.29,191c0,4.73-2.76,8.73-7.81,8.73s-7.81-4-7.81-8.73,2.75-8.74,7.81-8.74S434.29,186.3,434.29,191Zm-13.6,0c0,3.52,1.92,7,5.79,7s5.79-3.52,5.79-7-1.92-7-5.79-7S420.69,187.52,420.69,191Z" transform="translate(-101.41 -154.81)" style="fill:#231f20"/><path d="M437.29,182.78h1.86v3.87h.06a6.11,6.11,0,0,1,6.24-4.09v2a5.69,5.69,0,0,0-6.14,5.92v8.8h-2Z" transform="translate(-101.41 -154.81)" style="fill:#231f20"/><path d="M447.18,187.84c.2-3.87,2.91-5.54,6.69-5.54,2.91,0,6.08.9,6.08,5.31v8.77a1.07,1.07,0,0,0,1.18,1.22,2,2,0,0,0,.64-.13v1.7a5.79,5.79,0,0,1-1.31.12c-2,0-2.37-1.15-2.37-2.88H458c-1.41,2.15-2.85,3.36-6,3.36s-5.53-1.5-5.53-4.83c0-4.64,4.51-4.8,8.86-5.31,1.67-.19,2.59-.42,2.59-2.24,0-2.72-1.95-3.39-4.32-3.39s-4.35,1.15-4.41,3.84Zm10.75,2.43h-.06c-.26.48-1.15.64-1.7.74-3.42.6-7.67.57-7.67,3.8a3.44,3.44,0,0,0,3.67,3.27c3.08,0,5.8-2,5.76-5.19Z" transform="translate(-101.41 -154.81)" style="fill:#231f20"/><path d="M478.51,199.29h-1.86v-3.13h-.06a6.54,6.54,0,0,1-5.89,3.61c-5,0-7.42-4.06-7.42-8.73s2.4-8.74,7.42-8.74a5.88,5.88,0,0,1,5.73,3.62h.06v-9.47h2Zm-7.81-1.21c4.29,0,5.79-3.62,5.79-7s-1.5-7-5.79-7c-3.84,0-5.41,3.61-5.41,7S466.86,198.08,470.7,198.08Z" transform="translate(-101.41 -154.81)" style="fill:#231f20"/><path d="M497.13,191c0,4.73-2.75,8.73-7.8,8.73s-7.81-4-7.81-8.73,2.75-8.74,7.81-8.74S497.13,186.3,497.13,191Zm-13.6,0c0,3.52,1.92,7,5.8,7s5.79-3.52,5.79-7-1.92-7-5.79-7S483.53,187.52,483.53,191Z" transform="translate(-101.41 -154.81)" style="fill:#231f20"/><path d="M197.65,211.45h9.66c3.84,0,7.33,1.34,7.33,5.6a5.19,5.19,0,0,1-4,5.12v.06a5.35,5.35,0,0,1,4.83,5.57c0,2.17-.77,6.49-8.19,6.49h-9.66Zm2.17,10h7.49c3.49,0,5.15-1.73,5.15-3.87,0-2.85-1.76-4.29-5.15-4.29h-7.49Zm0,11h7.49c3.23,0,6-1.06,6-4.71,0-2.91-2.21-4.41-6-4.41h-7.49Z" transform="translate(-101.41 -154.81)" style="fill:#231f20"/><path d="M233.39,226c0,4.73-2.75,8.73-7.81,8.73s-7.8-4-7.8-8.73,2.75-8.74,7.8-8.74S233.39,221.3,233.39,226Zm-13.6,0c0,3.52,1.92,7,5.79,7s5.79-3.52,5.79-7-1.92-7-5.79-7S219.79,222.52,219.79,226Z" transform="translate(-101.41 -154.81)" style="fill:#231f20"/><path d="M249.77,234.29h-1.85v-3h-.07a6.12,6.12,0,0,1-5.69,3.45c-4.16,0-5.79-2.43-5.79-6.27V217.78h2v10.75c.1,3,1.22,4.55,4.42,4.55,3.45,0,5-3.27,5-6.63v-8.67h2Z" transform="translate(-101.41 -154.81)" style="fill:#231f20"/><path d="M253.61,211.45h2v22.84h-2Z" transform="translate(-101.41 -154.81)" style="fill:#231f20"/><path d="M274,234.29h-1.86v-3.13h-.06a6.54,6.54,0,0,1-5.89,3.61c-5,0-7.42-4.06-7.42-8.73s2.4-8.74,7.42-8.74a5.88,5.88,0,0,1,5.73,3.62H272v-9.47h2Zm-7.81-1.21c4.29,0,5.79-3.62,5.79-7s-1.5-7-5.79-7c-3.84,0-5.41,3.61-5.41,7S262.38,233.08,266.22,233.08Z" transform="translate(-101.41 -154.81)" style="fill:#231f20"/><path d="M279.05,226.58c0,2.95,1.57,6.5,5.44,6.5,2.95,0,4.55-1.73,5.19-4.23h2c-.86,3.75-3,5.92-7.2,5.92-5.24,0-7.45-4-7.45-8.73,0-4.35,2.21-8.74,7.45-8.74s7.43,4.64,7.27,9.28Zm10.69-1.69c-.09-3-2-5.89-5.25-5.89s-5.11,2.88-5.44,5.89Z" transform="translate(-101.41 -154.81)" style="fill:#231f20"/><path d="M294.48,217.78h1.85v3.87h.07a6.1,6.1,0,0,1,6.24-4.09v2a5.69,5.69,0,0,0-6.15,5.92v8.8h-2Z" transform="translate(-101.41 -154.81)" style="fill:#231f20"/><polygon points="59.6 20.07 59.6 10.92 48.7 0 10.93 0 0 10.92 0 48.62 10.93 59.53 22.93 59.53 22.93 68.71 33.95 79.64 65.82 79.64 76.86 68.72 76.86 39.51 82.49 39.51 82.49 20.07 59.6 20.07" style="fill:#cfb87c"/><polygon points="48.23 1.13 58.46 11.39 58.46 21.2 81.36 21.2 81.36 38.39 75.73 38.39 75.73 68.24 65.35 78.5 34.41 78.5 24.06 68.24 24.06 58.4 11.4 58.4 1.13 48.15 1.13 11.39 11.4 1.13 48.23 1.13" style="fill:#231f20"/><polyline points="12.57 55.57 26.89 55.57 26.89 67.06 35.58 75.67 64.19 75.67 72.9 67.06 72.9 35.55 78.53 35.55 78.53 24.04 61.26 24.04 61.26 64.17 38.4 64.17 38.4 55.57 47.05 55.57 55.63 46.97 55.63 35.55 44.12 35.55 44.12 44.08 38.4 44.08 38.4 24.04 21.18 24.04 21.18 35.55 26.89 35.55 26.89 44.08 15.45 44.08 15.45 15.37 44.12 15.37 44.12 24.04 55.63 24.04 55.63 12.57 47.05 3.96 12.57 3.96 3.96 12.56 3.96 46.97 12.57 55.57" style="fill:#fff"/><polygon points="36.98 54.15 46.47 54.15 54.22 46.39 54.22 36.97 45.54 36.97 45.54 45.5 36.98 45.5 36.98 25.46 22.6 25.46 22.6 34.14 28.31 34.14 28.31 45.5 14.04 45.5 14.04 13.95 45.54 13.95 45.54 22.62 54.22 22.62 54.22 13.15 46.47 5.38 13.16 5.38 5.38 13.15 5.38 46.39 13.16 54.15 28.31 54.15 28.31 66.47 36.16 74.26 63.6 74.26 71.48 66.46 71.48 34.14 77.11 34.14 77.11 25.46 62.67 25.46 62.67 65.58 36.98 65.58 36.98 54.15" style="fill:#cfb87c"/></svg>