<svg id="Layer_1" data-name="Layer 1" xmlns="http://www.w3.org/2000/svg" viewBox="0 0 160.76 182.75"><title>Boulder FL vertical B</title><path d="M220.79,192.23H223v14.15c0,5.31,2.49,7.33,6.69,7.33s6.75-2,6.72-7.33V192.23h2.17v14.63c0,4.7-2.53,8.7-8.89,8.7s-8.87-4-8.87-8.7Z" transform="translate(-218.71 -102.81)" style="fill:#231f20"/><path d="M242.52,198.57h2v2.85h.06a5.59,5.59,0,0,1,5.28-3.33c4.64,0,6.05,2.43,6.05,6.37v10.62h-2v-10.3c0-2.85-.93-5-4.19-5s-5.12,2.43-5.18,5.66v9.63h-2Z" transform="translate(-218.71 -102.81)" style="fill:#231f20"/><path d="M259.77,192.23h2v3.24h-2Zm0,6.34h2v16.51h-2Z" transform="translate(-218.71 -102.81)" style="fill:#231f20"/><path d="M263.8,198.57H266l5.18,14.49h.07l5.12-14.49h2.08l-6.18,16.51h-2.14Z" transform="translate(-218.71 -102.81)" style="fill:#231f20"/><path d="M281.66,207.37c0,2.94,1.56,6.5,5.44,6.5,2.94,0,4.54-1.73,5.18-4.23h2c-.86,3.74-3,5.92-7.19,5.92-5.25,0-7.46-4-7.46-8.73,0-4.36,2.21-8.74,7.46-8.74s7.42,4.64,7.26,9.28Zm10.68-1.7c-.09-3-2-5.88-5.24-5.88s-5.12,2.88-5.44,5.88Z" transform="translate(-218.71 -102.81)" style="fill:#231f20"/><path d="M297.08,198.57h1.86v3.87H299a6.1,6.1,0,0,1,6.24-4.09v2a5.69,5.69,0,0,0-6.14,5.92v8.8h-2Z" transform="translate(-218.71 -102.81)" style="fill:#231f20"/><path d="M317.05,203.4c-.1-2.49-2-3.61-4.32-3.61-1.79,0-3.91.7-3.91,2.84,0,1.8,2.05,2.44,3.43,2.79l2.69.61c2.3.35,4.7,1.69,4.7,4.57,0,3.58-3.55,5-6.62,5-3.84,0-6.47-1.79-6.79-5.82h2c.16,2.72,2.17,4.13,4.86,4.13,1.89,0,4.51-.84,4.51-3.14,0-1.92-1.79-2.56-3.61-3l-2.59-.58c-2.63-.7-4.61-1.6-4.61-4.41,0-3.36,3.29-4.64,6.21-4.64,3.29,0,5.92,1.73,6,5.31Z" transform="translate(-218.71 -102.81)" style="fill:#231f20"/><path d="M322.58,192.23h2v3.24h-2Zm0,6.34h2v16.51h-2Z" transform="translate(-218.71 -102.81)" style="fill:#231f20"/><path d="M331.67,198.57H335v1.7h-3.36V211.4c0,1.31.19,2.08,1.63,2.18a16.56,16.56,0,0,0,1.73-.1v1.73c-.61,0-1.18.06-1.79.06-2.69,0-3.62-.89-3.59-3.71V200.27h-2.87v-1.7h2.87v-5h2Z" transform="translate(-218.71 -102.81)" style="fill:#231f20"/><path d="M336.09,198.57h2.14l5.44,14.08,5.09-14.08h2l-7.16,19c-1.15,2.78-1.83,3.58-4.36,3.58a5.08,5.08,0,0,1-1.53-.16v-1.69a7.5,7.5,0,0,0,1.38.16c1.79,0,2.2-1.06,2.87-2.6l.71-1.88Z" transform="translate(-218.71 -102.81)" style="fill:#231f20"/><path d="M235.41,241.83c0,4.73-2.75,8.73-7.8,8.73s-7.81-4-7.81-8.73,2.75-8.74,7.81-8.74S235.41,237.09,235.41,241.83Zm-13.59,0c0,3.51,1.92,7,5.79,7s5.79-3.53,5.79-7-1.92-7-5.79-7S221.82,238.31,221.82,241.83Z" transform="translate(-218.71 -102.81)" style="fill:#231f20"/><path d="M244.79,235.27h-3.26v14.81h-2V235.27H236.7v-1.7h2.81v-1.5c0-2.85.77-4.84,4-4.84a11.38,11.38,0,0,1,1.7.13v1.73a7.94,7.94,0,0,0-1.47-.16c-2.24,0-2.18,1.41-2.21,3.2v1.44h3.26Z" transform="translate(-218.71 -102.81)" style="fill:#231f20"/><path d="M272.69,234.15a6.92,6.92,0,0,0-7-5.54c-6.05,0-8.61,5.06-8.61,10s2.56,10.05,8.61,10.05c4.22,0,6.91-3.27,7.32-7.33h2.18c-.61,5.6-4.16,9.18-9.5,9.18-7.2,0-10.79-5.66-10.79-11.9s3.59-11.91,10.79-11.91c4.32,0,8.6,2.6,9.18,7.4Z" transform="translate(-218.71 -102.81)" style="fill:#231f20"/><path d="M292.92,241.83c0,4.73-2.75,8.73-7.81,8.73s-7.81-4-7.81-8.73,2.76-8.74,7.81-8.74S292.92,237.09,292.92,241.83Zm-13.6,0c0,3.51,1.92,7,5.79,7s5.79-3.53,5.79-7-1.92-7-5.79-7S279.32,238.31,279.32,241.83Z" transform="translate(-218.71 -102.81)" style="fill:#231f20"/><path d="M296,227.23h2v22.85h-2Z" transform="translate(-218.71 -102.81)" style="fill:#231f20"/><path d="M316.63,241.83c0,4.73-2.75,8.73-7.81,8.73s-7.8-4-7.8-8.73,2.75-8.74,7.8-8.74S316.63,237.09,316.63,241.83Zm-13.6,0c0,3.51,1.92,7,5.79,7s5.79-3.53,5.79-7-1.92-7-5.79-7S303,238.31,303,241.83Z" transform="translate(-218.71 -102.81)" style="fill:#231f20"/><path d="M319.64,233.57h1.85v3.87h.07a6.1,6.1,0,0,1,6.24-4.09v2a5.69,5.69,0,0,0-6.15,5.92v8.8h-2Z" transform="translate(-218.71 -102.81)" style="fill:#231f20"/><path d="M329.53,238.63c.19-3.88,2.91-5.54,6.68-5.54,2.92,0,6.08.9,6.08,5.31v8.77a1.07,1.07,0,0,0,1.19,1.21,2,2,0,0,0,.64-.12V250a5.37,5.37,0,0,1-1.32.13c-2,0-2.36-1.15-2.36-2.88h-.07c-1.41,2.14-2.84,3.36-6,3.36s-5.54-1.5-5.54-4.83c0-4.64,4.51-4.8,8.87-5.31,1.66-.2,2.59-.42,2.59-2.24,0-2.72-1.95-3.39-4.32-3.39s-4.35,1.15-4.42,3.84Zm10.75,2.43h-.07c-.25.48-1.15.64-1.69.73-3.43.61-7.68.58-7.68,3.81a3.44,3.44,0,0,0,3.68,3.27c3.07,0,5.79-2,5.76-5.19Z" transform="translate(-218.71 -102.81)" style="fill:#231f20"/><path d="M360.85,250.08H359V247h-.07a6.53,6.53,0,0,1-5.89,3.61c-5,0-7.42-4.06-7.42-8.73s2.4-8.74,7.42-8.74a5.88,5.88,0,0,1,5.73,3.62h.07v-9.48h2ZM353,248.87c4.29,0,5.8-3.62,5.8-7s-1.51-7-5.8-7c-3.83,0-5.4,3.61-5.4,7S349.21,248.87,353,248.87Z" transform="translate(-218.71 -102.81)" style="fill:#231f20"/><path d="M379.48,241.83c0,4.73-2.76,8.73-7.81,8.73s-7.81-4-7.81-8.73,2.75-8.74,7.81-8.74S379.48,237.09,379.48,241.83Zm-13.6,0c0,3.51,1.92,7,5.79,7s5.79-3.53,5.79-7-1.92-7-5.79-7S365.88,238.31,365.88,241.83Z" transform="translate(-218.71 -102.81)" style="fill:#231f20"/><path d="M221,262.23h9.66c3.84,0,7.33,1.35,7.33,5.6a5.18,5.18,0,0,1-4,5.12V273a5.35,5.35,0,0,1,4.83,5.56c0,2.18-.77,6.5-8.19,6.5H221Zm2.17,10h7.49c3.49,0,5.15-1.73,5.15-3.87,0-2.85-1.76-4.29-5.15-4.29h-7.49Zm0,11h7.49c3.23,0,6-1.05,6-4.7,0-2.91-2.21-4.41-6-4.41h-7.49Z" transform="translate(-218.71 -102.81)" style="fill:#231f20"/><path d="M256.76,276.83c0,4.73-2.75,8.73-7.81,8.73s-7.81-4-7.81-8.73,2.76-8.74,7.81-8.74S256.76,272.09,256.76,276.83Zm-13.6,0c0,3.51,1.92,7,5.79,7s5.79-3.53,5.79-7-1.92-7-5.79-7S243.16,273.31,243.16,276.83Z" transform="translate(-218.71 -102.81)" style="fill:#231f20"/><path d="M273.14,285.08h-1.85v-3h-.07a6.14,6.14,0,0,1-5.69,3.45c-4.16,0-5.79-2.43-5.79-6.27V268.57h2v10.75c.1,3,1.22,4.55,4.42,4.55,3.45,0,5-3.27,5-6.63v-8.67h2Z" transform="translate(-218.71 -102.81)" style="fill:#231f20"/><path d="M277,262.23h2v22.85h-2Z" transform="translate(-218.71 -102.81)" style="fill:#231f20"/><path d="M297.4,285.08h-1.86V282h-.06a6.55,6.55,0,0,1-5.89,3.61c-5,0-7.42-4.06-7.42-8.73s2.4-8.74,7.42-8.74a5.9,5.9,0,0,1,5.73,3.62h.06v-9.48h2Zm-7.81-1.21c4.29,0,5.79-3.62,5.79-7s-1.5-7-5.79-7c-3.84,0-5.41,3.61-5.41,7S285.75,283.87,289.59,283.87Z" transform="translate(-218.71 -102.81)" style="fill:#231f20"/><path d="M302.42,277.37c0,2.94,1.57,6.5,5.44,6.5,2.95,0,4.55-1.73,5.19-4.23h2c-.86,3.74-3,5.92-7.2,5.92-5.24,0-7.45-4-7.45-8.73,0-4.36,2.21-8.74,7.45-8.74s7.43,4.64,7.27,9.28Zm10.69-1.7c-.09-3-2-5.88-5.25-5.88s-5.12,2.88-5.44,5.88Z" transform="translate(-218.71 -102.81)" style="fill:#231f20"/><path d="M317.85,268.57h1.85v3.87h.07a6.1,6.1,0,0,1,6.24-4.09v2a5.69,5.69,0,0,0-6.15,5.92v8.8h-2Z" transform="translate(-218.71 -102.81)" style="fill:#231f20"/><polygon points="59.6 20.07 59.6 10.92 48.7 0 10.93 0 0 10.92 0 48.62 10.93 59.53 22.93 59.53 22.93 68.71 33.95 79.64 65.82 79.64 76.86 68.72 76.86 39.51 82.49 39.51 82.49 20.07 59.6 20.07" style="fill:#cfb87c"/><polygon points="48.23 1.13 58.46 11.39 58.46 21.2 81.36 21.2 81.36 38.39 75.73 38.39 75.73 68.24 65.35 78.5 34.41 78.5 24.06 68.24 24.06 58.4 11.4 58.4 1.13 48.15 1.13 11.39 11.4 1.13 48.23 1.13" style="fill:#231f20"/><polyline points="12.57 55.57 26.89 55.57 26.89 67.06 35.58 75.67 64.19 75.67 72.9 67.06 72.9 35.55 78.53 35.55 78.53 24.04 61.26 24.04 61.26 64.17 38.4 64.17 38.4 55.57 47.05 55.57 55.63 46.97 55.63 35.55 44.12 35.55 44.12 44.08 38.4 44.08 38.4 24.04 21.18 24.04 21.18 35.55 26.89 35.55 26.89 44.08 15.45 44.08 15.45 15.37 44.12 15.37 44.12 24.04 55.63 24.04 55.63 12.57 47.05 3.96 12.57 3.96 3.96 12.56 3.96 46.97 12.57 55.57" style="fill:#fff"/><polygon points="36.98 54.15 46.47 54.15 54.22 46.39 54.22 36.97 45.54 36.97 45.54 45.5 36.98 45.5 36.98 25.46 22.6 25.46 22.6 34.14 28.31 34.14 28.31 45.5 14.04 45.5 14.04 13.95 45.54 13.95 45.54 22.62 54.22 22.62 54.22 13.15 46.47 5.38 13.16 5.38 5.38 13.15 5.38 46.39 13.16 54.15 28.31 54.15 28.31 66.47 36.16 74.26 63.6 74.26 71.48 66.46 71.48 34.14 77.11 34.14 77.11 25.46 62.67 25.46 62.67 65.58 36.98 65.58 36.98 54.15" style="fill:#cfb87c"/></svg>